<svg width="76" height="44" viewBox="0 0 76 44" fill="none" xmlns="http://www.w3.org/2000/svg">
<path d="M0.667969 40.763C0.875414 42.1558 2.20899 43.4005 4.20936 43.4005C6.9506 43.4005 8.03228 41.578 8.03228 39.5776V33.0727H6.13564V33.9321C5.88374 33.4431 5.21695 32.9393 4.06118 32.9393C2.06082 32.9393 0.667969 34.5693 0.667969 36.4956C0.667969 38.5404 2.12009 40.0369 4.06118 40.0369C5.11323 40.0369 5.79483 39.5776 6.09118 39.1034V39.6369C6.09118 41.0445 5.39476 41.6669 4.15009 41.6669C3.21658 41.6669 2.57943 41.089 2.44607 40.2888L0.667969 40.763ZM4.40199 38.3477C3.37958 38.3477 2.65352 37.6365 2.65352 36.4956C2.65352 35.3694 3.42403 34.6582 4.40199 34.6582C5.35031 34.6582 6.12082 35.3694 6.12082 36.4956C6.12082 37.6217 5.40958 38.3477 4.40199 38.3477Z" fill="#6966FF"/>
<path d="M12.011 33.0727H10.0403V40.3629H12.011V34.4063C12.0555 35.0879 12.6185 35.6065 13.3298 35.6065C14.0707 35.6065 14.6485 35.0286 14.6485 34.2877C14.6485 33.5469 14.0707 32.969 13.3298 32.969C12.6185 32.969 12.0555 33.5024 12.011 34.1988V33.0727Z" fill="#6966FF"/>
<path d="M15.3987 38.3774C15.3987 39.5183 16.347 40.5704 17.9028 40.5704C18.9845 40.5704 19.6809 40.0666 20.0514 39.4887C20.0514 39.7702 20.081 40.1703 20.1255 40.3629H21.9332C21.8887 40.111 21.8443 39.5924 21.8443 39.2072V35.6213C21.8443 34.1544 20.9849 32.8504 18.6733 32.8504C16.7174 32.8504 15.6654 34.1099 15.5468 35.2509L17.2953 35.6213C17.3546 34.9842 17.8287 34.4359 18.6882 34.4359C19.5179 34.4359 19.918 34.8656 19.918 35.3842C19.918 35.6361 19.7847 35.8436 19.3698 35.9029L17.5768 36.1696C16.3618 36.3474 15.3987 37.0734 15.3987 38.3774ZM18.3177 39.1034C17.6806 39.1034 17.3694 38.6885 17.3694 38.2588C17.3694 37.6958 17.7695 37.4142 18.2733 37.3402L19.918 37.0883V37.4142C19.918 38.7034 19.1475 39.1034 18.3177 39.1034Z" fill="#6966FF"/>
<path d="M25.7722 36.1696C25.7722 35.325 26.276 34.6582 27.1354 34.6582C28.0837 34.6582 28.4838 35.2953 28.4838 36.1103V40.3629H30.4545V35.7695C30.4545 34.1692 29.6248 32.8801 27.817 32.8801C27.0317 32.8801 26.1575 33.2209 25.7129 33.9766V33.0727H23.8015V40.3629H25.7722V36.1696Z" fill="#6966FF"/>
<path d="M34.9602 30.8945H33.1821V31.9169C33.1821 32.5689 32.8265 33.0727 32.056 33.0727H31.6856V34.8212H33.0043V38.2144C33.0043 39.6221 33.8934 40.4666 35.3159 40.4666C35.8937 40.4666 36.2494 40.3629 36.4272 40.2888V38.6589C36.3234 38.6885 36.0567 38.7182 35.8196 38.7182C35.2566 38.7182 34.9602 38.5107 34.9602 37.8736V34.8212H36.4272V33.0727H34.9602V30.8945Z" fill="#6966FF"/>
<path d="M37.5223 38.3329C37.6112 39.1627 38.3669 40.5852 40.5599 40.5852C42.4713 40.5852 43.39 39.3702 43.39 38.1848C43.39 37.1179 42.664 36.2437 41.2267 35.9473L40.1894 35.725C39.7894 35.651 39.5226 35.4287 39.5226 35.0731C39.5226 34.6582 39.9375 34.347 40.4561 34.347C41.2859 34.347 41.5971 34.8953 41.6564 35.325L43.3011 34.9545C43.2122 34.1692 42.5158 32.8504 40.4413 32.8504C38.8707 32.8504 37.7149 33.9321 37.7149 35.2361C37.7149 36.2585 38.3521 37.1031 39.7597 37.4142L40.7229 37.6365C41.2859 37.755 41.5082 38.0218 41.5082 38.3477C41.5082 38.733 41.197 39.0738 40.5451 39.0738C39.6856 39.0738 39.2559 38.5404 39.2115 37.9625L37.5223 38.3329Z" fill="#6966FF"/>
<path fill-rule="evenodd" clip-rule="evenodd" d="M58.1486 22.8242C58.2847 22.8242 58.3949 22.9345 58.3949 23.0705L58.3949 23.0871C58.3949 23.2232 58.2847 23.3334 58.1486 23.3334C58.0126 23.3334 57.9023 23.2232 57.9023 23.0871L57.9023 23.0705C57.9023 22.9345 58.0126 22.8242 58.1486 22.8242ZM58.1486 25.5024C58.2847 25.5024 58.3949 25.6127 58.3949 25.7487L58.3949 25.782C58.3949 25.918 58.2847 26.0283 58.1486 26.0283C58.0126 26.0283 57.9023 25.918 57.9023 25.782L57.9023 25.7487C57.9023 25.6127 58.0126 25.5024 58.1486 25.5024ZM58.1486 28.1973C58.2847 28.1973 58.3949 28.3075 58.3949 28.4436L58.3949 28.4768C58.3949 28.6128 58.2847 28.7231 58.1486 28.7231C58.0126 28.7231 57.9023 28.6128 57.9023 28.4768L57.9023 28.4436C57.9023 28.3075 58.0126 28.1973 58.1486 28.1973ZM58.1486 30.8921C58.2847 30.8921 58.3949 31.0024 58.3949 31.1384L58.3949 31.1717C58.3949 31.3077 58.2847 31.418 58.1486 31.418C58.0126 31.418 57.9023 31.3077 57.9023 31.1717L57.9023 31.1384C57.9023 31.0024 58.0126 30.8921 58.1486 30.8921ZM58.1486 33.587C58.2847 33.587 58.3949 33.6972 58.3949 33.8333L58.3949 33.8499C58.3949 33.9859 58.2847 34.0962 58.1486 34.0962C58.0126 34.0962 57.9023 33.9859 57.9023 33.8499L57.9023 33.8333C57.9023 33.6972 58.0126 33.587 58.1486 33.587Z" fill="#55555E"/>
<path fill-rule="evenodd" clip-rule="evenodd" d="M58.1486 2.80469C58.2847 2.80469 58.3949 2.91495 58.3949 3.05097L58.3949 3.06656C58.3949 3.20258 58.2847 3.31284 58.1486 3.31284C58.0126 3.31284 57.9023 3.20258 57.9023 3.06656L57.9023 3.05097C57.9023 2.91495 58.0126 2.80469 58.1486 2.80469ZM58.1486 5.31436C58.2847 5.31436 58.3949 5.42463 58.3949 5.56064L58.3949 5.59182C58.3949 5.72784 58.2847 5.8381 58.1486 5.8381C58.0126 5.8381 57.9023 5.72784 57.9023 5.59182L57.9023 5.56064C57.9023 5.42463 58.0126 5.31436 58.1486 5.31436ZM58.1486 7.83962C58.2847 7.83962 58.3949 7.94989 58.3949 8.08591L58.3949 8.11708C58.3949 8.2531 58.2847 8.36337 58.1486 8.36337C58.0126 8.36337 57.9023 8.2531 57.9023 8.11708L57.9023 8.08591C57.9023 7.94989 58.0126 7.83962 58.1486 7.83962ZM58.1486 10.3649C58.2847 10.3649 58.3949 10.4751 58.3949 10.6112L58.3949 10.6268C58.3949 10.7628 58.2847 10.873 58.1486 10.873C58.0126 10.873 57.9023 10.7628 57.9023 10.6268L57.9023 10.6112C57.9023 10.4751 58.0126 10.3649 58.1486 10.3649Z" fill="#55555E"/>
<path fill-rule="evenodd" clip-rule="evenodd" d="M75.0469 17.1975C75.0469 17.3335 74.9366 17.4437 74.8006 17.4437L74.7857 17.4437C74.6497 17.4437 74.5394 17.3335 74.5394 17.1975C74.5394 17.0614 74.6497 16.9512 74.7857 16.9512L74.8006 16.9512C74.9366 16.9512 75.0469 17.0614 75.0469 17.1975ZM72.6478 17.1975C72.6478 17.3335 72.5376 17.4437 72.4015 17.4437L72.3717 17.4437C72.2357 17.4437 72.1254 17.3335 72.1254 17.1975C72.1254 17.0614 72.2357 16.9512 72.3717 16.9512L72.4015 16.9512C72.5376 16.9512 72.6478 17.0614 72.6478 17.1975ZM70.2339 17.1975C70.2339 17.3335 70.1236 17.4437 69.9876 17.4437L69.9578 17.4437C69.8218 17.4437 69.7115 17.3335 69.7115 17.1975C69.7115 17.0614 69.8218 16.9512 69.9578 16.9512L69.9876 16.9512C70.1236 16.9512 70.2339 17.0614 70.2339 17.1975ZM67.8199 17.1975C67.8199 17.3335 67.7096 17.4437 67.5736 17.4437L67.5438 17.4437C67.4078 17.4437 67.2975 17.3335 67.2975 17.1975C67.2975 17.0614 67.4078 16.9512 67.5438 16.9512L67.5736 16.9512C67.7096 16.9512 67.8199 17.0614 67.8199 17.1975ZM65.4059 17.1975C65.4059 17.3335 65.2957 17.4437 65.1597 17.4437L65.1299 17.4437C64.9938 17.4437 64.8836 17.3335 64.8836 17.1975C64.8836 17.0614 64.9938 16.9512 65.1299 16.9512L65.1597 16.9512C65.2957 16.9512 65.4059 17.0614 65.4059 17.1975ZM62.992 17.1975C62.992 17.3335 62.8817 17.4437 62.7457 17.4437L62.7308 17.4437C62.5948 17.4437 62.4845 17.3335 62.4845 17.1975C62.4845 17.0614 62.5948 16.9512 62.7308 16.9512L62.7457 16.9512C62.8817 16.9512 62.992 17.0614 62.992 17.1975Z" fill="#55555E"/>
<path fill-rule="evenodd" clip-rule="evenodd" d="M53.9219 17.1975C53.9219 17.3335 53.8116 17.4437 53.6756 17.4437H53.6606C53.5245 17.4437 53.4143 17.3335 53.4143 17.1975C53.4143 17.0614 53.5245 16.9512 53.6606 16.9512H53.6756C53.8116 16.9512 53.9219 17.0614 53.9219 17.1975ZM51.5019 17.1975C51.5019 17.3335 51.3916 17.4437 51.2556 17.4437H51.2255C51.0895 17.4437 50.9792 17.3335 50.9792 17.1975C50.9792 17.0614 51.0895 16.9512 51.2255 16.9512H51.2556C51.3916 16.9512 51.5019 17.0614 51.5019 17.1975ZM49.0668 17.1975C49.0668 17.3335 48.9565 17.4437 48.8205 17.4437H48.7904C48.6544 17.4437 48.5442 17.3335 48.5442 17.1975C48.5442 17.0614 48.6544 16.9512 48.7904 16.9512H48.8205C48.9565 16.9512 49.0668 17.0614 49.0668 17.1975Z" fill="#55555E"/>
<path fill-rule="evenodd" clip-rule="evenodd" d="M58.1348 0.300781H58.1677C58.3038 0.300911 58.4139 0.411281 58.4138 0.547299C58.4137 0.683318 58.3033 0.793477 58.1673 0.793347H58.1353C57.9993 0.793477 57.8889 0.683318 57.8888 0.547299C57.8886 0.411281 57.9988 0.300911 58.1348 0.300781ZM55.807 0.709077C55.828 0.843467 55.7361 0.969424 55.6017 0.990409L55.5702 0.995361C55.4358 1.01661 55.3097 0.924923 55.2884 0.790574C55.2672 0.656226 55.3589 0.53009 55.4932 0.508842L55.5257 0.503741C55.6601 0.482756 55.786 0.574688 55.807 0.709077ZM60.4955 0.709078C60.5165 0.574688 60.6425 0.482756 60.7769 0.503741L60.8093 0.508842C60.9437 0.53009 61.0354 0.656226 61.0141 0.790574C60.9929 0.924923 60.8667 1.01661 60.7324 0.995362L60.7009 0.990409C60.5665 0.969424 60.4746 0.843467 60.4955 0.709078ZM63.0448 1.27641C63.0866 1.147 63.2255 1.07605 63.3549 1.11793L63.3861 1.12806C63.5154 1.17019 63.5861 1.30919 63.544 1.43852C63.5018 1.56785 63.3628 1.63853 63.2335 1.59639L63.2032 1.58656C63.0738 1.54468 63.0029 1.40582 63.0448 1.27641ZM53.2578 1.27641C53.2997 1.40582 53.2287 1.54468 53.0993 1.58656L53.0691 1.59639C52.9397 1.63853 52.8007 1.56785 52.7586 1.43852C52.7165 1.30919 52.7871 1.17019 52.9165 1.12806L52.9477 1.11793C53.0771 1.07605 53.2159 1.147 53.2578 1.27641ZM65.4725 2.23823C65.5342 2.11702 65.6825 2.06881 65.8037 2.13054L65.8329 2.14544C65.954 2.2074 66.0019 2.35579 65.9399 2.47688C65.878 2.59796 65.7296 2.64588 65.6085 2.58392L65.5802 2.56946C65.459 2.50773 65.4108 2.35943 65.4725 2.23823ZM50.8301 2.23823C50.8918 2.35943 50.8436 2.50773 50.7224 2.56946L50.6941 2.58392C50.573 2.64588 50.4246 2.59796 50.3626 2.47688C50.3007 2.3558 50.3486 2.2074 50.4697 2.14544L50.4988 2.13054C50.62 2.06881 50.7683 2.11702 50.8301 2.23823ZM48.5836 3.56933C48.6635 3.67938 48.6391 3.83339 48.5291 3.91333L48.5034 3.93203C48.3935 4.01217 48.2394 3.98805 48.1593 3.87815C48.0791 3.76825 48.1032 3.61419 48.2131 3.53405L48.2396 3.51479C48.3497 3.43485 48.5037 3.45927 48.5836 3.56933ZM67.719 3.56933C67.7989 3.45927 67.9529 3.43485 68.063 3.51479L68.0894 3.53405C68.1993 3.61419 68.2234 3.76825 68.1433 3.87815C68.0632 3.98805 67.9091 4.01217 67.7992 3.93203L67.7735 3.91333C67.6634 3.83339 67.639 3.67938 67.719 3.56933ZM46.5723 5.23477C46.6684 5.33104 46.6683 5.48698 46.572 5.58306L46.5495 5.60555C46.4534 5.70182 46.2975 5.70197 46.2012 5.60588C46.1049 5.50979 46.1048 5.35386 46.2009 5.25758L46.224 5.23443C46.3203 5.13835 46.4762 5.1385 46.5723 5.23477ZM69.7302 5.23477C69.8263 5.1385 69.9823 5.13835 70.0785 5.23443L70.1017 5.25758C70.1978 5.35386 70.1976 5.50979 70.1014 5.60588C70.0051 5.70197 69.8491 5.70182 69.7531 5.60555L69.7306 5.58306C69.6343 5.48698 69.6342 5.33104 69.7302 5.23477ZM71.458 7.19282C71.5679 7.11267 71.7219 7.13679 71.8021 7.24669L71.8213 7.27316C71.9013 7.38321 71.8769 7.53723 71.7668 7.61716C71.6567 7.69709 71.5027 7.67267 71.4228 7.56262L71.4041 7.53692C71.3239 7.42702 71.3481 7.27296 71.458 7.19282ZM72.8592 9.39619C72.9803 9.33423 73.1287 9.38215 73.1907 9.50323L73.2056 9.5324C73.2673 9.6536 73.2191 9.8019 73.0979 9.86363C72.9767 9.92536 72.8284 9.87715 72.7667 9.75595L72.7522 9.72764C72.6902 9.60655 72.7382 9.45816 72.8592 9.39619ZM73.8976 11.7922C74.0269 11.75 74.1659 11.8207 74.2081 11.95L74.2182 11.9812C74.2601 12.1106 74.1891 12.2495 74.0597 12.2914C73.9303 12.3333 73.7914 12.2623 73.7496 12.1329L73.7397 12.1026C73.6976 11.9733 73.7683 11.8343 73.8976 11.7922ZM74.5455 14.322C74.6799 14.3008 74.806 14.3924 74.8273 14.5268L74.8324 14.5593C74.8534 14.6936 74.7614 14.8196 74.627 14.8406C74.4927 14.8616 74.3667 14.7696 74.3457 14.6352L74.3408 14.6037C74.3195 14.4694 74.4112 14.3433 74.5455 14.322ZM74.7888 16.9223C74.9248 16.9222 75.0352 17.0324 75.0353 17.1684V17.2013C75.0352 17.3373 74.9248 17.4475 74.7888 17.4474C74.6528 17.4472 74.5426 17.3369 74.5428 17.2008V17.1689C74.5426 17.0328 74.6528 16.9225 74.7888 16.9223ZM74.627 19.5291C74.7614 19.5501 74.8534 19.676 74.8324 19.8104L74.8273 19.8429C74.806 19.9772 74.6799 20.0689 74.5455 20.0477C74.4112 20.0264 74.3195 19.9003 74.3408 19.7659L74.3457 19.7344C74.3667 19.6 74.4927 19.5081 74.627 19.5291ZM74.0597 22.0783C74.1891 22.1202 74.2601 22.2591 74.2182 22.3885L74.2081 22.4197C74.1659 22.549 74.0269 22.6197 73.8976 22.5775C73.7683 22.5354 73.6976 22.3964 73.7397 22.2671L73.7496 22.2368C73.7914 22.1074 73.9303 22.0364 74.0597 22.0783ZM73.0979 24.5061C73.2191 24.5678 73.2673 24.7161 73.2056 24.8373L73.1907 24.8665C73.1287 24.9875 72.9803 25.0355 72.8592 24.9735C72.7382 24.9115 72.6902 24.7631 72.7522 24.6421L72.7667 24.6137C72.8284 24.4925 72.9767 24.4443 73.0979 24.5061ZM71.7668 26.7525C71.8769 26.8325 71.9013 26.9865 71.8213 27.0965L71.8021 27.123C71.7219 27.2329 71.5679 27.257 71.458 27.1769C71.3481 27.0967 71.3239 26.9427 71.4041 26.8328L71.4228 26.8071C71.5027 26.697 71.6567 26.6726 71.7668 26.7525ZM46.2012 28.7638C46.2975 28.6677 46.4534 28.6679 46.5495 28.7641L46.572 28.7866C46.6683 28.8827 46.6684 29.0386 46.5723 29.1349C46.4762 29.2312 46.3203 29.2313 46.224 29.1353L46.2009 29.1121C46.1048 29.0158 46.1049 28.8599 46.2012 28.7638ZM70.1014 28.7638C70.1976 28.8599 70.1978 29.0158 70.1017 29.1121L70.0785 29.1353C69.9823 29.2313 69.8263 29.2312 69.7302 29.1349C69.6342 29.0386 69.6343 28.8827 69.7306 28.7866L69.7531 28.7641C69.8491 28.6679 70.0051 28.6677 70.1014 28.7638ZM48.1593 30.4915C48.2394 30.3816 48.3935 30.3575 48.5034 30.4377L48.5291 30.4564C48.6391 30.5363 48.6635 30.6903 48.5836 30.8004C48.5037 30.9104 48.3497 30.9348 48.2396 30.8549L48.2131 30.8356C48.1032 30.7555 48.0791 30.6014 48.1593 30.4915ZM68.1433 30.4915C68.2234 30.6014 68.1993 30.7555 68.0894 30.8356L68.063 30.8549C67.9529 30.9348 67.7989 30.9104 67.719 30.8004C67.639 30.6903 67.6634 30.5363 67.7735 30.4564L67.7992 30.4377C67.9091 30.3575 68.0632 30.3816 68.1433 30.4915ZM50.3626 31.8928C50.4246 31.7717 50.573 31.7238 50.6941 31.7858L50.7224 31.8002C50.8436 31.862 50.8918 32.0103 50.8301 32.1315C50.7683 32.2527 50.62 32.3009 50.4988 32.2391L50.4697 32.2243C50.3486 32.1623 50.3007 32.0139 50.3626 31.8928ZM65.9399 31.8928C66.0019 32.0139 65.954 32.1623 65.8329 32.2243L65.8037 32.2391C65.6825 32.3009 65.5342 32.2527 65.4725 32.1315C65.4108 32.0103 65.459 31.862 65.5802 31.8002L65.6085 31.7858C65.7296 31.7238 65.878 31.7717 65.9399 31.8928ZM52.7586 32.9312C52.8007 32.8018 52.9397 32.7312 53.0691 32.7733L53.0993 32.7831C53.2287 32.825 53.2997 32.9639 53.2578 33.0933C53.2159 33.2227 53.0771 33.2936 52.9477 33.2518L52.9165 33.2416C52.7871 33.1995 52.7165 33.0605 52.7586 32.9312ZM63.544 32.9312C63.5861 33.0605 63.5154 33.1995 63.3861 33.2416L63.3549 33.2518C63.2255 33.2936 63.0866 33.2227 63.0448 33.0933C63.0029 32.9639 63.0738 32.825 63.2032 32.7831L63.2335 32.7733C63.3628 32.7312 63.5018 32.8018 63.544 32.9312ZM55.2884 33.5791C55.3097 33.4448 55.4358 33.3531 55.5702 33.3743L55.6017 33.3793C55.7361 33.4003 55.828 33.5262 55.807 33.6606C55.786 33.795 55.6601 33.8869 55.5257 33.8659L55.4932 33.8608C55.3589 33.8396 55.2672 33.7135 55.2884 33.5791ZM61.0141 33.5791C61.0354 33.7135 60.9437 33.8396 60.8093 33.8608L60.7769 33.8659C60.6425 33.8869 60.5165 33.795 60.4955 33.6606C60.4746 33.5262 60.5665 33.4003 60.7009 33.3793L60.7324 33.3743C60.8667 33.3531 60.9929 33.4448 61.0141 33.5791ZM57.8888 33.8224C57.8889 33.6864 57.9993 33.5762 58.1353 33.5763H58.1673C58.3033 33.5762 58.4137 33.6864 58.4138 33.8224C58.4139 33.9584 58.3038 34.0688 58.1677 34.0689H58.1348C57.9988 34.0688 57.8886 33.9584 57.8888 33.8224Z" fill="white"/>
<path d="M58.6953 33.8218C58.6953 34.1241 58.4503 34.3691 58.148 34.3691C57.8458 34.3691 57.6007 34.1241 57.6007 33.8218C57.6007 33.5196 57.8458 33.2745 58.148 33.2745C58.4503 33.2745 58.6953 33.5196 58.6953 33.8218Z" fill="#6966FF"/>
<path d="M74.7856 17.7324C74.4833 17.7324 74.2383 17.4874 74.2383 17.1851C74.2383 16.8829 74.4833 16.6378 74.7856 16.6378C75.0878 16.6378 75.3329 16.8829 75.3329 17.1851C75.3329 17.4874 75.0878 17.7324 74.7856 17.7324Z" fill="#6966FF"/>
<path d="M58.6953 0.546455C58.6953 0.848717 58.4503 1.09375 58.148 1.09375C57.8458 1.09375 57.6007 0.848717 57.6007 0.546455C57.6007 0.244192 57.8458 -0.000840619 58.148 -0.000840593C58.4503 -0.000840566 58.6953 0.244192 58.6953 0.546455Z" fill="#6966FF"/>
<path fill-rule="evenodd" clip-rule="evenodd" d="M62.9328 6.92578H67.4717L52.8581 27.393H48.3945L62.9328 6.92578ZM57.6007 12.9568L53.3231 6.92578H48.7665L55.3689 16.2464L57.6007 12.9568ZM56.4817 12.9684L55.3526 14.6327L50.5446 7.84524H52.848L56.4817 12.9684ZM50.1754 26.4736H52.3848L65.6855 7.84524H63.4075L50.1754 26.4736Z" fill="white"/>
<path fill-rule="evenodd" clip-rule="evenodd" d="M63.8556 26.4227C63.9018 26.4869 63.9762 26.525 64.0554 26.525H66.1366L61.1593 19.4571C61.061 19.3176 60.8541 19.3179 60.7563 19.4577L59.9115 20.6645C59.8515 20.7503 59.8522 20.8646 59.9134 20.9496L63.8556 26.4227ZM58.6836 20.8153L63.4584 27.4444H67.9087L60.9551 17.5703L58.6836 20.8153Z" fill="url(#paint0_linear_2352_26600)"/>
<path fill-rule="evenodd" clip-rule="evenodd" d="M16.2731 6.92578H12.3718V13.0158C11.2451 12.4131 9.9515 12.0704 8.57591 12.0704C4.20847 12.0704 0.667969 15.5253 0.667969 19.7872C0.667969 24.0491 4.20847 27.5041 8.57591 27.5041C9.9515 27.5041 11.2451 27.1613 12.3718 26.5586V27.3204H16.2731V6.92578ZM13.0131 19.7466C13.0131 22.1604 11.0078 24.1172 8.53425 24.1172C6.06066 24.1172 4.05542 22.1604 4.05542 19.7466C4.05542 17.3328 6.06066 15.376 8.53425 15.376C11.0078 15.376 13.0131 17.3328 13.0131 19.7466ZM32.0805 6.92578L17.5735 27.3204H22.1215L36.6144 6.92578H32.0805ZM43.3963 6.92578H47.2976V27.3204H43.3963V26.5586C42.2695 27.1613 40.976 27.5041 39.6004 27.5041C35.2329 27.5041 31.6924 24.0491 31.6924 19.7872C31.6924 15.5253 35.2329 12.0704 39.6004 12.0704C40.976 12.0704 42.2695 12.4131 43.3963 13.0158V6.92578ZM39.5587 24.1172C42.0323 24.1172 44.0376 22.1604 44.0376 19.7466C44.0376 17.3328 42.0323 15.376 39.5587 15.376C37.0851 15.376 35.0799 17.3328 35.0799 19.7466C35.0799 22.1604 37.0851 24.1172 39.5587 24.1172ZM26.6755 13.1175L22.124 6.92578H17.3867L24.1675 16.5776L26.6755 13.1175Z" fill="white"/>
<defs>
<linearGradient id="paint0_linear_2352_26600" x1="64.4611" y1="25.8903" x2="57.106" y2="15.7844" gradientUnits="userSpaceOnUse">
<stop stop-color="#6966FF"/>
<stop offset="1" stop-color="#6966FF" stop-opacity="0.36"/>
</linearGradient>
</defs>
</svg>
